v 0.099526 0.172384 0.038308
vn 0.774597 0.447214 0.447214
vt 0.071824 0.802176
v 0.199052 0 0.038308
vn 0.774597 0.447214 0.447214
vt 0.071824 0.802176
v 0.221169 0 0
vn 0.774597 0.447214 0.447214
vt 0.071824 0.802176
v 0.110584 0.191537 0
vn 0.774597 0.447214 0.447214
vt 0.071824 0.802176
v 0.199052 0 0.038308
vn 0 0 1
vt 0.071824 0.802176
v 0.099526 0.172384 0.038308
vn 0 0 1
vt 0.071824 0.802176
v 0.077409 0.134076 0.038308
vn 0 0 1
vt 0.071824 0.802176
v 0.154818 0 0.038308
vn 0 0 1
vt 0.071824 0.802176
v 0.154818 0 0.038308
vn -0.774597 -0.447214 0.447214
vt 0.071824 0.802176
v 0.077409 0.134076 0.038308
vn -0.774597 -0.447214 0.447214
vt 0.071824 0.802176
v 0.066351 0.114922 0
vn -0.774597 -0.447214 0.447214
vt 0.071824 0.802176
v 0.132701 0 0
vn -0.774597 -0.447214 0.447214
vt 0.071824 0.802176
v 0.066351 0.114922 0
vn -0.774597 -0.447214 -0.447214
vt 0.071824 0.802176
v 0.154818 0 -0.038308
vn -0.774597 -0.447214 -0.447214
vt 0.071824 0.802176
v 0.132701 0 0
vn -0.774597 -0.447214 -0.447214
vt 0.071824 0.802176
v 0.077409 0.134076 -0.038308
vn -0.774597 -0.447214 -0.447214
vt 0.071824 0.802176
v 0.199052 0 -0.038308
vn 0 0 -1
vt 0.071824 0.802176
v 0.077409 0.134076 -0.038308
vn 0 0 -1
vt 0.071824 0.802176
v 0.099526 0.172384 -0.038308
vn 0 0 -1
vt 0.071824 0.802176
v 0.154818 0 -0.038308
vn 0 0 -1
vt 0.071824 0.802176
v 0.221169 0 0
vn 0.774597 0.447214 -0.447214
vt 0.071824 0.802176
v 0.099526 0.172384 -0.038308
vn 0.774597 0.447214 -0.447214
vt 0.071824 0.802176
v 0.110584 0.191537 0
vn 0.774597 0.447214 -0.447214
vt 0.071824 0.802176
v 0.199052 0 -0.038308
vn 0.774597 0.447214 -0.447214
vt 0.071824 0.802176
v 0.110584 0.191537 0
vn 0 0.894427 0.447214
vt 0.071824 0.802176
v -0.110584 0.191537 0
vn 0 0.894427 0.447214
vt 0.071824 0.802176
v -0.099526 0.172384 0.038308
vn 0 0.894427 0.447214
vt 0.071824 0.802176
v 0.099526 0.172384 0.038308
vn 0 0.894427 0.447214
vt 0.071824 0.802176
v -0.099526 0.172384 0.038308
vn 0 0 1
vt 0.071824 0.802176
v 0.077409 0.134076 0.038308
vn 0 0 1
vt 0.071824 0.802176
v 0.099526 0.172384 0.038308
vn 0 0 1
vt 0.071824 0.802176
v -0.077409 0.134076 0.038308
vn 0 0 1
vt 0.071824 0.802176
v 0.077409 0.134076 0.038308
vn 0 -0.894427 0.447213
vt 0.071824 0.802176
v -0.077409 0.134076 0.038308
vn 0 -0.894427 0.447213
vt 0.071824 0.802176
v -0.066351 0.114922 0
vn 0 -0.894427 0.447213
vt 0.071824 0.802176
v 0.066351 0.114922 0
vn 0 -0.894427 0.447213
vt 0.071824 0.802176
v -0.077409 0.134076 -0.038308
vn 0 -0.894427 -0.447213
vt 0.071824 0.802176
v 0.066351 0.114922 0
vn 0 -0.894427 -0.447213
vt 0.071824 0.802176
v -0.066351 0.114922 0
vn 0 -0.894427 -0.447213
vt 0.071824 0.802176
v 0.077409 0.134076 -0.038308
vn 0 -0.894427 -0.447213
vt 0.071824 0.802176
v 0.077409 0.134076 -0.038308
vn 0 0 -1
vt 0.071824 0.802176
v -0.077409 0.134076 -0.038308
vn 0 0 -1
vt 0.071824 0.802176
v -0.099526 0.172384 -0.038308
vn 0 0 -1
vt 0.071824 0.802176
v 0.099526 0.172384 -0.038308
vn 0 0 -1
vt 0.071824 0.802176
v -0.110584 0.191537 0
vn 0 0.894427 -0.447214
vt 0.071824 0.802176
v 0.110584 0.191537 0
vn 0 0.894427 -0.447214
vt 0.071824 0.802176
v 0.099526 0.172384 -0.038308
vn 0 0.894427 -0.447214
vt 0.071824 0.802176
v -0.099526 0.172384 -0.038308
vn 0 0.894427 -0.447214
vt 0.071824 0.802176
v -0.099526 0.172384 0.038308
vn -0.774597 0.447214 0.447214
vt 0.071824 0.802176
v -0.221169 0 0
vn -0.774597 0.447214 0.447214
vt 0.071824 0.802176
v -0.199052 0 0.038308
vn -0.774597 0.447214 0.447214
vt 0.071824 0.802176
v -0.110584 0.191537 0
vn -0.774597 0.447214 0.447214
vt 0.071824 0.802176
v -0.199052 0 0.038308
vn 0 0 1
vt 0.071824 0.802176
v -0.077409 0.134076 0.038308
vn 0 0 1
vt 0.071824 0.802176
v -0.099526 0.172384 0.038308
vn 0 0 1
vt 0.071824 0.802176
v -0.154818 0 0.038308
vn 0 0 1
vt 0.071824 0.802176
v -0.154818 0 0.038308
vn 0.774597 -0.447214 0.447214
vt 0.071824 0.802176
v -0.066351 0.114922 0
vn 0.774597 -0.447214 0.447214
vt 0.071824 0.802176
v -0.077409 0.134076 0.038308
vn 0.774597 -0.447214 0.447214
vt 0.071824 0.802176
v -0.132701 0 0
vn 0.774597 -0.447214 0.447214
vt 0.071824 0.802176
v -0.066351 0.114922 0
vn 0.774597 -0.447214 -0.447214
vt 0.071824 0.802176
v -0.132701 0 0
vn 0.774597 -0.447214 -0.447214
vt 0.071824 0.802176
v -0.154818 0 -0.038308
vn 0.774597 -0.447214 -0.447214
vt 0.071824 0.802176
v -0.077409 0.134076 -0.038308
vn 0.774597 -0.447214 -0.447214
vt 0.071824 0.802176
v -0.199052 0 -0.038308
vn 0 0 -1
vt 0.071824 0.802176
v -0.099526 0.172384 -0.038308
vn 0 0 -1
vt 0.071824 0.802176
v -0.077409 0.134076 -0.038308
vn 0 0 -1
vt 0.071824 0.802176
v -0.154818 0 -0.038308
vn 0 0 -1
vt 0.071824 0.802176
v -0.221169 0 0
vn -0.774597 0.447214 -0.447214
vt 0.071824 0.802176
v -0.110584 0.191537 0
vn -0.774597 0.447214 -0.447214
vt 0.071824 0.802176
v -0.099526 0.172384 -0.038308
vn -0.774597 0.447214 -0.447214
vt 0.071824 0.802176
v -0.199052 0 -0.038308
vn -0.774597 0.447214 -0.447214
vt 0.071824 0.802176
v -0.099526 -0.172384 0.038308
vn -0.774597 -0.447214 0.447214
vt 0.071824 0.802176
v -0.199052 0 0.038308
vn -0.774597 -0.447214 0.447214
vt 0.071824 0.802176
v -0.221169 0 0
vn -0.774597 -0.447214 0.447214
vt 0.071824 0.802176
v -0.110584 -0.191538 0
vn -0.774597 -0.447214 0.447214
vt 0.071824 0.802176
v -0.077409 -0.134077 0.038308
vn 0 0 1
vt 0.071824 0.802176
v -0.199052 0 0.038308
vn 0 0 1
vt 0.071824 0.802176
v -0.099526 -0.172384 0.038308
vn 0 0 1
vt 0.071824 0.802176
v -0.154818 0 0.038308
vn 0 0 1
vt 0.071824 0.802176
v -0.066351 -0.114923 0
vn 0.774597 0.447214 0.447214
vt 0.071824 0.802176
v -0.154818 0 0.038308
vn 0.774597 0.447214 0.447214
vt 0.071824 0.802176
v -0.077409 -0.134077 0.038308
vn 0.774597 0.447214 0.447214
vt 0.071824 0.802176
v -0.132701 0 0
vn 0.774597 0.447214 0.447214
vt 0.071824 0.802176
v -0.066351 -0.114923 0
vn 0.774597 0.447214 -0.447214
vt 0.071824 0.802176
v -0.154818 0 -0.038308
vn 0.774597 0.447214 -0.447214
vt 0.071824 0.802176
v -0.132701 0 0
vn 0.774597 0.447214 -0.447214
vt 0.071824 0.802176
v -0.077409 -0.134077 -0.038308
vn 0.774597 0.447214 -0.447214
vt 0.071824 0.802176
v -0.077409 -0.134077 -0.038308
vn 0 0 -1
vt 0.071824 0.802176
v -0.099526 -0.172384 -0.038308
vn 0 0 -1
vt 0.071824 0.802176
v -0.221169 0 0
vn -0.774597 -0.447214 -0.447214
vt 0.071824 0.802176
v -0.099526 -0.172384 -0.038308
vn -0.774597 -0.447214 -0.447214
vt 0.071824 0.802176
v -0.110584 -0.191538 0
vn -0.774597 -0.447214 -0.447214
vt 0.071824 0.802176
v -0.199052 0 -0.038308
vn -0.774597 -0.447214 -0.447214
vt 0.071824 0.802176
v 0.099526 -0.172384 0.038308
vn 0 -0.894427 0.447214
vt 0.071824 0.802176
v 0.052414 -0.172384 0.038308
vn 0 -0.894427 0.447214
vt 0.071824 0.802176
v 0.058237 -0.191538 0
vn 0 -0.894427 0.447214
vt 0.071824 0.802176
v 0.110584 -0.191538 0
vn 0 -0.894427 0.447214
vt 0.071824 0.802176
v 0.077409 -0.134077 0.038308
vn 0 0 1
vt 0.071824 0.802176
v 0.040766 -0.134077 0.038308
vn 0 0 1
vt 0.071824 0.802176
v 0.052414 -0.172384 0.038308
vn 0 0 1
vt 0.071824 0.802176
v 0.099526 -0.172384 0.038308
vn 0 0 1
vt 0.071824 0.802176
v 0.077409 -0.134077 0.038308
vn 0 0.894427 0.447213
vt 0.071824 0.802176
v 0.066351 -0.114923 0
vn 0 0.894427 0.447213
vt 0.071824 0.802176
v 0.040766 -0.134077 0.038308
vn 0 0.894427 0.447213
vt 0.071824 0.802176
v 0.034942 -0.114923 0
vn 0 0.894427 0.447213
vt 0.071824 0.802176
v 0.066351 -0.114923 0
vn 0 0.894427 -0.447214
vt 0.071824 0.802176
v 0.040766 -0.134077 -0.038308
vn 0 0.894427 -0.447214
vt 0.071824 0.802176
v 0.034942 -0.114923 0
vn 0 0.894427 -0.447214
vt 0.071824 0.802176
v 0.077409 -0.134077 -0.038308
vn 0 0.894427 -0.447214
vt 0.071824 0.802176
v 0.052414 -0.172384 -0.038308
vn 0 0 -1
vt 0.071824 0.802176
v 0.077409 -0.134077 -0.038308
vn 0 0 -1
vt 0.071824 0.802176
v 0.099526 -0.172384 -0.038308
vn 0 0 -1
vt 0.071824 0.802176
v 0.040766 -0.134077 -0.038308
vn 0 0 -1
vt 0.071824 0.802176
v 0.058237 -0.191538 0
vn 0 -0.894427 -0.447214
vt 0.071824 0.802176
v 0.099526 -0.172384 -0.038308
vn 0 -0.894427 -0.447214
vt 0.071824 0.802176
v 0.110584 -0.191538 0
vn 0 -0.894427 -0.447214
vt 0.071824 0.802176
v 0.052414 -0.172384 -0.038308
vn 0 -0.894427 -0.447214
vt 0.071824 0.802176
v 0.099526 -0.172384 0.038308
vn 0.774597 -0.447214 0.447214
vt 0.071824 0.802176
v 0.221169 0 0
vn 0.774597 -0.447214 0.447214
vt 0.071824 0.802176
v 0.199052 0 0.038308
vn 0.774597 -0.447214 0.447214
vt 0.071824 0.802176
v 0.110584 -0.191538 0
vn 0.774597 -0.447214 0.447214
vt 0.071824 0.802176
v 0.199052 0 0.038308
vn 0 0 1
vt 0.071824 0.802176
v 0.077409 -0.134077 0.038308
vn 0 0 1
vt 0.071824 0.802176
v 0.099526 -0.172384 0.038308
vn 0 0 1
vt 0.071824 0.802176
v 0.154818 0 0.038308
vn 0 0 1
vt 0.071824 0.802176
v 0.154818 0 0.038308
vn -0.774597 0.447214 0.447214
vt 0.071824 0.802176
v 0.066351 -0.114923 0
vn -0.774597 0.447214 0.447214
vt 0.071824 0.802176
v 0.077409 -0.134077 0.038308
vn -0.774597 0.447214 0.447214
vt 0.071824 0.802176
v 0.132701 0 0
vn -0.774597 0.447214 0.447214
vt 0.071824 0.802176
v 0.066351 -0.114923 0
vn -0.774597 0.447214 -0.447214
vt 0.071824 0.802176
v 0.132701 0 0
vn -0.774597 0.447214 -0.447214
vt 0.071824 0.802176
v 0.154818 0 -0.038308
vn -0.774597 0.447214 -0.447214
vt 0.071824 0.802176
v 0.077409 -0.134077 -0.038308
vn -0.774597 0.447214 -0.447214
vt 0.071824 0.802176
v 0.077409 -0.134077 -0.038308
vn 0 0 -1
vt 0.071824 0.802176
v 0.099526 -0.172384 -0.038308
vn 0 0 -1
vt 0.071824 0.802176
v 0.221169 0 0
vn 0.774597 -0.447214 -0.447214
vt 0.071824 0.802176
v 0.110584 -0.191538 0
vn 0.774597 -0.447214 -0.447214
vt 0.071824 0.802176
v 0.099526 -0.172384 -0.038308
vn 0.774597 -0.447214 -0.447214
vt 0.071824 0.802176
v 0.199052 0 -0.038308
vn 0.774597 -0.447214 -0.447214
vt 0.071824 0.802176
v -0.058237 -0.191538 0
vn 0 -0.894427 -0.447214
vt 0.071824 0.802176
v -0.110584 -0.191538 0
vn 0 -0.894427 -0.447214
vt 0.071824 0.802176
v -0.099526 -0.172384 -0.038308
vn 0 -0.894427 -0.447214
vt 0.071824 0.802176
v -0.052414 -0.172384 -0.038308
vn 0 -0.894427 -0.447214
vt 0.071824 0.802176
v -0.058237 -0.624645 0
vn -0.98864 0 0.150299
vt 0.071824 0.802176
v -0.052414 -0.667802 0.038308
vn -0.98864 0 0.150299
vt 0.071824 0.802176
v -0.052414 -0.624645 0.038308
vn -0.98864 0 0.150299
vt 0.071824 0.802176
v -0.058237 -0.686955 0
vn -0.98864 0 0.150299
vt 0.071824 0.802176
v -0.052414 -0.172384 -0.038308
vn 0 0 -1
vt 0.071824 0.802176
v -0.040766 -0.134077 -0.038308
vn 0 0 -1
vt 0.071824 0.802176
v -0.052414 -0.172384 -0.038308
vn 0 0 -1
vt 0.071824 0.802176
v 0.040766 -0.134077 -0.038308
vn 0 0 -1
vt 0.071824 0.802176
v 0.052414 -0.172384 -0.038308
vn 0 0 -1
vt 0.071824 0.802176
v -0.040766 -0.134077 -0.038308
vn 0 0 -1
vt 0.071824 0.802176
v -0.034942 -0.114923 0
vn 0 0.894427 -0.447214
vt 0.071824 0.802176
v -0.040766 -0.134077 -0.038308
vn 0 0.894427 -0.447214
vt 0.071824 0.802176
v -0.066351 -0.114923 0
vn 0 0.894427 -0.447214
vt 0.071824 0.802176
v -0.077409 -0.134077 -0.038308
vn 0 0.894427 -0.447214
vt 0.071824 0.802176
v 0.034942 -0.114923 0
vn 0 0.894427 -0.447213
vt 0.071824 0.802176
v -0.040766 -0.134077 -0.038308
vn 0 0.894427 -0.447213
vt 0.071824 0.802176
v -0.034942 -0.114923 0
vn 0 0.894427 -0.447213
vt 0.071824 0.802176
v 0.040766 -0.134077 -0.038308
vn 0 0.894427 -0.447213
vt 0.071824 0.802176
v -0.040766 -0.134077 0.038308
vn 0 0.894427 0.447214
vt 0.071824 0.802176
v -0.066351 -0.114923 0
vn 0 0.894427 0.447214
vt 0.071824 0.802176
v -0.077409 -0.134077 0.038308
vn 0 0.894427 0.447214
vt 0.071824 0.802176
v -0.034942 -0.114923 0
vn 0 0.894427 0.447214
vt 0.071824 0.802176
v -0.040766 -0.134077 0.038308
vn 0 0.894427 0.447213
vt 0.071824 0.802176
v 0.040766 -0.134077 0.038308
vn 0 0.894427 0.447213
vt 0.071824 0.802176
v 0.034942 -0.114923 0
vn 0 0.894427 0.447213
vt 0.071824 0.802176
v -0.034942 -0.114923 0
vn 0 0.894427 0.447213
vt 0.071824 0.802176
v -0.077409 -0.134077 0.038308
vn 0 0 1
vt 0.071824 0.802176
v -0.052414 -0.172384 0.038308
vn 0 0 1
vt 0.071824 0.802176
v -0.040766 -0.134077 0.038308
vn 0 0 1
vt 0.071824 0.802176
v -0.099526 -0.172384 0.038308
vn 0 0 1
vt 0.071824 0.802176
v -0.099526 -0.172384 0.038308
vn 0 -0.894427 0.447214
vt 0.071824 0.802176
v -0.058237 -0.191538 0
vn 0 -0.894427 0.447214
vt 0.071824 0.802176
v -0.052414 -0.172384 0.038308
vn 0 -0.894427 0.447214
vt 0.071824 0.802176
v -0.110584 -0.191538 0
vn 0 -0.894427 0.447214
vt 0.071824 0.802176
v 0.058237 -0.624645 0
vn 0.988641 0 -0.150299
vt 0.071824 0.802176
v 0.052414 -0.667802 -0.038308
vn 0.988641 0 -0.150299
vt 0.071824 0.802176
v 0.052414 -0.624645 -0.038308
vn 0.988641 0 -0.150299
vt 0.071824 0.802176
v 0.058237 -0.686955 0
vn 0.988641 0 -0.150299
vt 0.071824 0.802176
v 0.058237 -0.686955 0
vn 0 -0.894428 -0.447212
vt 0.071824 0.802176
v -0.058237 -0.686955 0
vn 0 -0.894428 -0.447212
vt 0.071824 0.802176
v -0.052414 -0.667802 -0.038308
vn 0 -0.894428 -0.447212
vt 0.071824 0.802176
v 0.052414 -0.667802 -0.038308
vn 0 -0.894428 -0.447212
vt 0.071824 0.802176
v -0.052414 -0.667802 0.038308
vn 0 -0.894428 0.447212
vt 0.071824 0.802176
v 0.058237 -0.686955 0
vn 0 -0.894428 0.447212
vt 0.071824 0.802176
v 0.052414 -0.667802 0.038308
vn 0 -0.894428 0.447212
vt 0.071824 0.802176
v -0.058237 -0.686955 0
vn 0 -0.894428 0.447212
vt 0.071824 0.802176
v 0.052414 -0.667802 -0.038308
vn 0 0 -1
vt 0.071824 0.802176
v -0.052414 -0.667802 -0.038308
vn 0 0 -1
vt 0.071824 0.802176
v -0.052414 -0.624645 -0.038308
vn 0 0 -1
vt 0.071824 0.802176
v 0.052414 -0.624645 -0.038308
vn 0 0 -1
vt 0.071824 0.802176
v 0.052414 -0.624645 0.038308
vn 0 0 1
vt 0.071824 0.802176
v -0.052414 -0.624645 0.038308
vn 0 0 1
vt 0.071824 0.802176
v -0.052414 -0.667802 0.038308
vn 0 0 1
vt 0.071824 0.802176
v 0.052414 -0.667802 0.038308
vn 0 0 1
vt 0.071824 0.802176
v 0.052414 -0.667802 0.038308
vn 0.988641 0 0.150299
vt 0.071824 0.802176
v 0.058237 -0.624645 0
vn 0.988641 0 0.150299
vt 0.071824 0.802176
v 0.052414 -0.624645 0.038308
vn 0.988641 0 0.150299
vt 0.071824 0.802176
v 0.058237 -0.686955 0
vn 0.988641 0 0.150299
vt 0.071824 0.802176
v -0.058237 -0.686955 0
vn -0.98864 0 -0.150299
vt 0.071824 0.802176
v -0.058237 -0.624645 0
vn -0.98864 0 -0.150299
vt 0.071824 0.802176
v -0.052414 -0.667802 -0.038308
vn -0.98864 0 -0.150299
vt 0.071824 0.802176
v -0.052414 -0.624645 -0.038308
vn -0.98864 0 -0.150299
vt 0.071824 0.802176
v -0.052414 -0.172384 -0.038308
vn -0.988641 0 -0.150299
vt 0.071824 0.802176
v -0.052414 -0.362781 -0.038308
vn -0.988641 0 -0.150299
vt 0.071824 0.802176
v -0.058237 -0.191538 0
vn -0.988641 0 -0.150299
vt 0.071824 0.802176
v -0.058237 -0.362781 0
vn -0.988641 0 -0.150299
vt 0.071824 0.802176
v -0.058237 -0.624645 0
vn 0 -1 0.000001
vt 0.071824 0.802176
v -0.158575 -0.624645 -0.038308
vn 0 -1 0.000001
vt 0.071824 0.802176
v -0.052414 -0.624645 -0.038308
vn 0 -1 0.000001
vt 0.071824 0.802176
v -0.164398 -0.624645 0
vn 0 -1 0.000001
vt 0.071824 0.802176
v -0.058237 -0.525561 0
vn -0.988641 0 -0.150299
vt 0.071824 0.802176
v -0.058237 -0.461865 0
vn -0.988641 0 -0.150299
vt 0.071824 0.802176
v -0.052414 -0.525561 -0.038308
vn -0.988641 0 -0.150299
vt 0.071824 0.802176
v -0.052414 -0.461865 -0.038308
vn -0.988641 0 -0.150299
vt 0.071824 0.802176
v -0.058237 -0.362781 0
vn 0 1 0
vt 0.071824 0.802176
v -0.123188 -0.362781 0.038308
vn 0 1 0
vt 0.071824 0.802176
v -0.052414 -0.362781 0.038308
vn 0 1 0
vt 0.071824 0.802176
v -0.129011 -0.362781 0
vn 0 1 0
vt 0.071824 0.802176
v 0.052414 -0.172384 0.038308
vn 0.988641 0 0.150299
vt 0.071824 0.802176
v 0.052414 -0.362781 0.038308
vn 0.988641 0 0.150299
vt 0.071824 0.802176
v 0.058237 -0.191538 0
vn 0.988641 0 0.150299
vt 0.071824 0.802176
v 0.058237 -0.362781 0
vn 0.988641 0 0.150299
vt 0.071824 0.802176
v 0.052414 -0.461865 0.038308
vn 0.988641 0 0.150299
vt 0.071824 0.802176
v 0.058237 -0.362781 0
vn 0.988641 0 0.150299
vt 0.071824 0.802176
v 0.052414 -0.362781 0.038308
vn 0.988641 0 0.150299
vt 0.071824 0.802176
v 0.058237 -0.461865 0
vn 0.988641 0 0.150299
vt 0.071824 0.802176
v 0.052414 -0.525561 0.038308
vn 0.988641 0 0.150299
vt 0.071824 0.802176
v 0.058237 -0.461865 0
vn 0.988641 0 0.150299
vt 0.071824 0.802176
v 0.052414 -0.461865 0.038308
vn 0.988641 0 0.150299
vt 0.071824 0.802176
v 0.058237 -0.525561 0
vn 0.988641 0 0.150299
vt 0.071824 0.802176
v 0.052414 -0.624645 0.038308
vn 0.988641 0 0.150299
vt 0.071824 0.802176
v 0.058237 -0.525561 0
vn 0.988641 0 0.150299
vt 0.071824 0.802176
v 0.052414 -0.525561 0.038308
vn 0.988641 0 0.150299
vt 0.071824 0.802176
v 0.058237 -0.624645 0
vn 0.988641 0 0.150299
vt 0.071824 0.802176
v -0.052414 -0.362781 0.038308
vn 0 0 1
vt 0.071824 0.802176
v 0.052414 -0.362781 0.038308
vn 0 0 1
vt 0.071824 0.802176
v -0.052414 -0.461865 0.038308
vn 0 0 1
vt 0.071824 0.802176
v 0.052414 -0.461865 0.038308
vn 0 0 1
vt 0.071824 0.802176
v -0.052414 -0.461865 0.038308
vn 0 0 1
vt 0.071824 0.802176
v -0.052414 -0.525561 0.038308
vn 0 0 1
vt 0.071824 0.802176
v 0.052414 -0.461865 0.038308
vn 0 0 1
vt 0.071824 0.802176
v 0.052414 -0.525561 0.038308
vn 0 0 1
vt 0.071824 0.802176
v -0.052414 -0.525561 0.038308
vn 0 0 1
vt 0.071824 0.802176
v 0.052414 -0.525561 0.038308
vn 0 0 1
vt 0.071824 0.802176
v -0.052414 -0.362781 -0.038308
vn 0 0 -1
vt 0.071824 0.802176
v 0.052414 -0.362781 -0.038308
vn 0 0 -1
vt 0.071824 0.802176
v 0.052414 -0.172384 -0.038308
vn 0 0 -1
vt 0.071824 0.802176
v 0.052414 -0.461865 -0.038308
vn 0 0 -1
vt 0.071824 0.802176
v -0.052414 -0.461865 -0.038308
vn 0 0 -1
vt 0.071824 0.802176
v 0.052414 -0.525561 -0.038308
vn 0 0 -1
vt 0.071824 0.802176
v -0.052414 -0.525561 -0.038308
vn 0 0 -1
vt 0.071824 0.802176
v -0.052414 -0.461865 -0.038308
vn 0 0 -1
vt 0.071824 0.802176
v 0.052414 -0.461865 -0.038308
vn 0 0 -1
vt 0.071824 0.802176
v -0.052414 -0.525561 -0.038308
vn 0 0 -1
vt 0.071824 0.802176
v 0.052414 -0.525561 -0.038308
vn 0 0 -1
vt 0.071824 0.802176
v 0.052414 -0.362781 -0.038308
vn 0.988641 0 -0.150299
vt 0.071824 0.802176
v 0.058237 -0.191538 0
vn 0.988641 0 -0.150299
vt 0.071824 0.802176
v 0.058237 -0.362781 0
vn 0.988641 0 -0.150299
vt 0.071824 0.802176
v 0.052414 -0.172384 -0.038308
vn 0.988641 0 -0.150299
vt 0.071824 0.802176
v 0.058237 -0.461865 0
vn 0.988641 0 -0.150299
vt 0.071824 0.802176
v 0.052414 -0.362781 -0.038308
vn 0.988641 0 -0.150299
vt 0.071824 0.802176
v 0.058237 -0.362781 0
vn 0.988641 0 -0.150299
vt 0.071824 0.802176
v 0.052414 -0.461865 -0.038308
vn 0.988641 0 -0.150299
vt 0.071824 0.802176
v 0.058237 -0.525561 0
vn 0.988641 0 -0.150299
vt 0.071824 0.802176
v 0.052414 -0.461865 -0.038308
vn 0.988641 0 -0.150299
vt 0.071824 0.802176
v 0.058237 -0.461865 0
vn 0.988641 0 -0.150299
vt 0.071824 0.802176
v 0.052414 -0.525561 -0.038308
vn 0.988641 0 -0.150299
vt 0.071824 0.802176
v 0.058237 -0.624645 0
vn 0.988641 0 -0.150299
vt 0.071824 0.802176
v 0.052414 -0.525561 -0.038308
vn 0.988641 0 -0.150299
vt 0.071824 0.802176
v 0.058237 -0.525561 0
vn 0.988641 0 -0.150299
vt 0.071824 0.802176
v 0.052414 -0.624645 -0.038308
vn 0.988641 0 -0.150299
vt 0.071824 0.802176
v -0.058237 -0.191538 0
vn -0.988641 0 0.150299
vt 0.071824 0.802176
v -0.052414 -0.362781 0.038308
vn -0.988641 0 0.150299
vt 0.071824 0.802176
v -0.052414 -0.172384 0.038308
vn -0.988641 0 0.150299
vt 0.071824 0.802176
v -0.058237 -0.362781 0
vn -0.988641 0 0.150299
vt 0.071824 0.802176
v -0.158575 -0.525561 0.038308
vn 0 0 1
vt 0.071824 0.802176
v -0.158575 -0.624645 0.038308
vn 0 0 1
vt 0.071824 0.802176
v -0.052414 -0.525561 0.038308
vn -0.988641 0 0.150299
vt 0.071824 0.802176
v -0.052414 -0.461865 0.038308
vn -0.988641 0 0.150299
vt 0.071824 0.802176
v -0.058237 -0.525561 0
vn -0.988641 0 0.150299
vt 0.071824 0.802176
v -0.058237 -0.461865 0
vn -0.988641 0 0.150299
vt 0.071824 0.802176
v -0.158575 -0.624645 0.038308
vn 0 -1 -0.000001
vt 0.071824 0.802176
v -0.058237 -0.624645 0
vn 0 -1 -0.000001
vt 0.071824 0.802176
v -0.052414 -0.624645 0.038308
vn 0 -1 -0.000001
vt 0.071824 0.802176
v -0.164398 -0.624645 0
vn 0 -1 -0.000001
vt 0.071824 0.802176
v -0.123188 -0.362781 -0.038308
vn -0.988641 0 -0.150299
vt 0.071824 0.802176
v -0.123188 -0.461865 -0.038308
vn -0.988641 0 -0.150299
vt 0.071824 0.802176
v -0.129011 -0.362781 0
vn -0.988641 0 -0.150299
vt 0.071824 0.802176
v -0.129011 -0.461865 0
vn -0.988641 0 -0.150299
vt 0.071824 0.802176
v -0.158575 -0.525561 -0.038308
vn -0.988641 0 -0.150299
vt 0.071824 0.802176
v -0.158575 -0.624645 -0.038308
vn -0.988641 0 -0.150299
vt 0.071824 0.802176
v -0.164398 -0.525561 0
vn -0.988641 0 -0.150299
vt 0.071824 0.802176
v -0.164398 -0.624645 0
vn -0.988641 0 -0.150299
vt 0.071824 0.802176
v -0.129011 -0.362781 0
vn -0.988641 0 0.150299
vt 0.071824 0.802176
v -0.129011 -0.461865 0
vn -0.988641 0 0.150299
vt 0.071824 0.802176
v -0.123188 -0.362781 0.038308
vn -0.988641 0 0.150299
vt 0.071824 0.802176
v -0.123188 -0.461865 0.038308
vn -0.988641 0 0.150299
vt 0.071824 0.802176
v -0.164398 -0.525561 0
vn -0.988641 0 0.150299
vt 0.071824 0.802176
v -0.164398 -0.624645 0
vn -0.988641 0 0.150299
vt 0.071824 0.802176
v -0.158575 -0.525561 0.038308
vn -0.988641 0 0.150299
vt 0.071824 0.802176
v -0.158575 -0.624645 0.038308
vn -0.988641 0 0.150299
vt 0.071824 0.802176
v -0.158575 -0.624645 -0.038308
vn 0 0 -1
vt 0.071824 0.802176
v -0.158575 -0.525561 -0.038308
vn 0 0 -1
vt 0.071824 0.802176
v -0.129011 -0.362781 0
vn 0 1 0
vt 0.071824 0.802176
v -0.058237 -0.362781 0
vn 0 1 0
vt 0.071824 0.802176
v -0.123188 -0.362781 -0.038308
vn 0 1 0
vt 0.071824 0.802176
v -0.052414 -0.362781 -0.038308
vn 0 1 0
vt 0.071824 0.802176
v -0.123188 -0.461865 0.038308
vn 0 -1 0
vt 0.071824 0.802176
v -0.058237 -0.461865 0
vn 0 -1 0
vt 0.071824 0.802176
v -0.052414 -0.461865 0.038308
vn 0 -1 0
vt 0.071824 0.802176
v -0.129011 -0.461865 0
vn 0 -1 0
vt 0.071824 0.802176
v -0.058237 -0.461865 0
vn 0 -1 0
vt 0.071824 0.802176
v -0.123188 -0.461865 -0.038308
vn 0 -1 0
vt 0.071824 0.802176
v -0.052414 -0.461865 -0.038308
vn 0 -1 0
vt 0.071824 0.802176
v -0.129011 -0.461865 0
vn 0 -1 0
vt 0.071824 0.802176
v -0.123188 -0.362781 0.038308
vn 0 0 1
vt 0.071824 0.802176
v -0.123188 -0.461865 0.038308
vn 0 0 1
vt 0.071824 0.802176
v -0.058237 -0.525561 0
vn 0 1 0
vt 0.071824 0.802176
v -0.158575 -0.525561 0.038308
vn 0 1 0
vt 0.071824 0.802176
v -0.052414 -0.525561 0.038308
vn 0 1 0
vt 0.071824 0.802176
v -0.164398 -0.525561 0
vn 0 1 0
vt 0.071824 0.802176
v -0.123188 -0.461865 -0.038308
vn 0 0 -1
vt 0.071824 0.802176
v -0.123188 -0.362781 -0.038308
vn 0 0 -1
vt 0.071824 0.802176
v -0.052414 -0.525561 -0.038308
vn 0 1 0
vt 0.071824 0.802176
v -0.158575 -0.525561 -0.038308
vn 0 1 0
vt 0.071824 0.802176
v -0.058237 -0.525561 0
vn 0 1 0
vt 0.071824 0.802176
v -0.164398 -0.525561 0
vn 0 1 0
vt 0.071824 0.802176
f 1/1/1 2/2/2 3/3/3
f 3/3/3 4/4/4 1/1/1
f 5/5/5 6/6/6 7/7/7
f 5/5/5 7/7/7 8/8/8
f 9/9/9 10/10/10 11/11/11
f 9/9/9 11/11/11 12/12/12
f 13/13/13 14/14/14 15/15/15
f 14/14/14 13/13/13 16/16/16
f 17/17/17 18/18/18 19/19/19
f 18/18/18 17/17/17 20/20/20
f 21/21/21 22/22/22 23/23/23
f 22/22/22 21/21/21 24/24/24
f 25/25/25 26/26/26 27/27/27
f 25/25/25 27/27/27 28/28/28
f 29/29/29 30/30/30 31/31/31
f 30/30/30 29/29/29 32/32/32
f 33/33/33 34/34/34 35/35/35
f 33/33/33 35/35/35 36/36/36
f 37/37/37 38/38/38 39/39/39
f 38/38/38 37/37/37 40/40/40
f 41/41/41 42/42/42 43/43/43
f 41/41/41 43/43/43 44/44/44
f 45/45/45 46/46/46 47/47/47
f 45/45/45 47/47/47 48/48/48
f 49/49/49 50/50/50 51/51/51
f 50/50/50 49/49/49 52/52/52
f 53/53/53 54/54/54 55/55/55
f 54/54/54 53/53/53 56/56/56
f 57/57/57 58/58/58 59/59/59
f 58/58/58 57/57/57 60/60/60
f 61/61/61 62/62/62 63/63/63
f 61/61/61 63/63/63 64/64/64
f 65/65/65 66/66/66 67/67/67
f 65/65/65 67/67/67 68/68/68
f 69/69/69 70/70/70 71/71/71
f 69/69/69 71/71/71 72/72/72
f 73/73/73 74/74/74 75/75/75
f 75/75/75 76/76/76 73/73/73
f 77/77/77 78/78/78 79/79/79
f 78/78/78 77/77/77 80/80/80
f 81/81/81 82/82/82 83/83/83
f 82/82/82 81/81/81 84/84/84
f 85/85/85 86/86/86 87/87/87
f 86/86/86 85/85/85 88/88/88
f 89/89/89 65/65/65 68/68/68
f 65/65/65 89/89/89 90/90/90
f 91/91/91 92/92/92 93/93/93
f 92/92/92 91/91/91 94/94/94
f 95/95/95 96/96/96 97/97/97
f 97/97/97 98/98/98 95/95/95
f 99/99/99 100/100/100 101/101/101
f 101/101/101 102/102/102 99/99/99
f 103/103/103 104/104/104 105/105/105
f 105/105/105 104/104/104 106/106/106
f 107/107/107 108/108/108 109/109/109
f 108/108/108 107/107/107 110/110/110
f 111/111/111 112/112/112 113/113/113
f 112/112/112 111/111/111 114/114/114
f 115/115/115 116/116/116 117/117/117
f 116/116/116 115/115/115 118/118/118
f 119/119/119 120/120/120 121/121/121
f 120/120/120 119/119/119 122/122/122
f 123/123/123 124/124/124 125/125/125
f 124/124/124 123/123/123 126/126/126
f 127/127/127 128/128/128 129/129/129
f 128/128/128 127/127/127 130/130/130
f 131/131/131 132/132/132 133/133/133
f 131/131/131 133/133/133 134/134/134
f 135/135/135 20/20/20 17/17/17
f 135/135/135 17/17/17 136/136/136
f 137/137/137 138/138/138 139/139/139
f 137/137/137 139/139/139 140/140/140
f 141/141/141 142/142/142 143/143/143
f 141/141/141 143/143/143 144/144/144
f 145/145/145 146/146/146 147/147/147
f 146/146/146 145/145/145 148/148/148
f 149/149/149 90/90/90 89/89/89
f 89/89/89 150/150/150 149/149/149
f 151/151/151 152/152/152 153/153/153
f 152/152/152 151/151/151 154/154/154
f 155/155/155 156/156/156 157/157/157
f 157/157/157 156/156/156 158/158/158
f 159/159/159 160/160/160 161/161/161
f 160/160/160 159/159/159 162/162/162
f 163/163/163 164/164/164 165/165/165
f 164/164/164 163/163/163 166/166/166
f 167/167/167 168/168/168 169/169/169
f 167/167/167 169/169/169 170/170/170
f 171/171/171 172/172/172 173/173/173
f 172/172/172 171/171/171 174/174/174
f 172/172/172 101/101/101 100/100/100
f 172/172/172 100/100/100 173/173/173
f 175/175/175 176/176/176 177/177/177
f 176/176/176 175/175/175 178/178/178
f 179/179/179 180/180/180 181/181/181
f 180/180/180 179/179/179 182/182/182
f 183/183/183 184/184/184 185/185/185
f 183/183/183 185/185/185 186/186/186
f 187/187/187 188/188/188 189/189/189
f 188/188/188 187/187/187 190/190/190
f 191/191/191 192/192/192 193/193/193
f 191/191/191 193/193/193 194/194/194
f 195/195/195 196/196/196 197/197/197
f 195/195/195 197/197/197 198/198/198
f 199/199/199 200/200/200 201/201/201
f 200/200/200 199/199/199 202/202/202
f 203/203/203 204/204/204 205/205/205
f 204/204/204 206/206/206 205/205/205
f 207/207/207 208/208/208 209/209/209
f 210/210/210 209/209/209 208/208/208
f 211/211/211 212/212/212 213/213/213
f 212/212/212 211/211/211 214/214/214
f 215/215/215 216/216/216 217/217/217
f 216/216/216 218/218/218 217/217/217
f 219/219/219 220/220/220 221/221/221
f 220/220/220 219/219/219 222/222/222
f 223/223/223 224/224/224 225/225/225
f 225/225/225 224/224/224 226/226/226
f 227/227/227 228/228/228 229/229/229
f 228/228/228 227/227/227 230/230/230
f 231/231/231 232/232/232 233/233/233
f 232/232/232 231/231/231 234/234/234
f 235/235/235 236/236/236 237/237/237
f 236/236/236 235/235/235 238/238/238
f 172/172/172 239/239/239 101/101/101
f 101/101/101 239/239/239 240/240/240
f 239/239/239 241/241/241 240/240/240
f 240/240/240 241/241/241 242/242/242
f 243/243/243 244/244/244 245/245/245
f 245/245/245 244/244/244 246/246/246
f 247/247/247 196/196/196 248/248/248
f 248/248/248 196/196/196 195/195/195
f 249/249/249 149/149/149 250/250/250
f 250/250/250 149/149/149 251/251/251
f 252/252/252 253/253/253 249/249/249
f 252/252/252 249/249/249 250/250/250
f 254/254/254 255/255/255 256/256/256
f 254/254/254 256/256/256 257/257/257
f 194/194/194 193/193/193 258/258/258
f 194/194/194 258/258/258 259/259/259
f 260/260/260 261/261/261 262/262/262
f 261/261/261 260/260/260 263/263/263
f 264/264/264 265/265/265 266/266/266
f 265/265/265 264/264/264 267/267/267
f 268/268/268 269/269/269 270/270/270
f 269/269/269 268/268/268 271/271/271
f 272/272/272 273/273/273 274/274/274
f 273/273/273 272/272/272 275/275/275
f 276/276/276 277/277/277 278/278/278
f 277/277/277 276/276/276 279/279/279
f 280/280/280 196/196/196 247/247/247
f 196/196/196 280/280/280 281/281/281
f 282/282/282 283/283/283 284/284/284
f 283/283/283 285/285/285 284/284/284
f 286/286/286 287/287/287 288/288/288
f 287/287/287 286/286/286 289/289/289
f 290/290/290 291/291/291 292/292/292
f 293/293/293 292/292/292 291/291/291
f 294/294/294 295/295/295 296/296/296
f 297/297/297 296/296/296 295/295/295
f 298/298/298 299/299/299 300/300/300
f 301/301/301 300/300/300 299/299/299
f 302/302/302 303/303/303 304/304/304
f 305/305/305 304/304/304 303/303/303
f 306/306/306 258/258/258 193/193/193
f 258/258/258 306/306/306 307/307/307
f 308/308/308 309/309/309 310/310/310
f 309/309/309 311/311/311 310/310/310
f 312/312/312 313/313/313 314/314/314
f 313/313/313 312/312/312 315/315/315
f 316/316/316 317/317/317 318/318/318
f 317/317/317 316/316/316 319/319/319
f 320/320/320 241/241/241 239/239/239
f 241/241/241 320/320/320 321/321/321
f 322/322/322 323/323/323 324/324/324
f 323/323/323 322/322/322 325/325/325
f 326/326/326 249/249/249 253/253/253
f 249/249/249 326/326/326 327/327/327
f 328/328/328 329/329/329 330/330/330
f 331/331/331 330/330/330 329/329/329
