# MagicaVoxel @ Ephtracy

# group
o 

# material
mtllib wall_doorway_n.mtl
usemtl palette

# normals
vn -1 0 0
vn 1 0 0
vn 0 0 1
vn 0 0 -1
vn 0 -1 0
vn 0 1 0

# texcoords
vt 0.560547 0.5
vt 0.982422 0.5

# verts
v -1.6 0 -1.2
v -1.6 0 -1.6
v -1.6 3.2 -1.2
v -1.6 3.2 -1.6
v 1.1 0 -1.2
v 1.1 0 -1.6
v 1.1 2.8 -1.2
v 1.1 2.8 -1.6
v -1.1 0 -1.2
v -1.1 0 -1.6
v -1.1 2.8 -1.2
v -1.1 2.8 -1.6
v 1.6 0 -1.2
v 1.6 0 -1.6
v 1.6 3.2 -1.2
v 1.6 3.2 -1.6
v -1.6 0 -1.2
v -1.6 3.2 -1.2
v -1.3 0 -1.2
v -1.3 3 -1.2
v -1.1 0 -1.2
v -1.1 2.8 -1.2
v 1.1 0 -1.2
v 1.1 2.8 -1.2
v 1.3 0 -1.2
v 1.3 3 -1.2
v 1.6 0 -1.2
v 1.6 3.2 -1.2
v -1.6 0 -1.6
v -1.6 3.2 -1.6
v -1.3 0 -1.6
v -1.3 3 -1.6
v -1.1 0 -1.6
v -1.1 2.8 -1.6
v 1.1 0 -1.6
v 1.1 2.8 -1.6
v 1.3 0 -1.6
v 1.3 3 -1.6
v 1.6 0 -1.6
v 1.6 3.2 -1.6
v -1.6 0 -1.2
v -1.3 0 -1.2
v -1.1 0 -1.2
v 1.1 0 -1.2
v 1.3 0 -1.2
v 1.6 0 -1.2
v -1.6 0 -1.6
v -1.3 0 -1.6
v -1.1 0 -1.6
v 1.1 0 -1.6
v 1.3 0 -1.6
v 1.6 0 -1.6
v -1.1 2.8 -1.2
v 1.1 2.8 -1.2
v -1.1 2.8 -1.6
v 1.1 2.8 -1.6
v -1.6 3.2 -1.2
v 1.6 3.2 -1.2
v -1.6 3.2 -1.6
v 1.6 3.2 -1.6

# faces
f 3/2/1 2/2/1 1/2/1
f 4/2/1 2/2/1 3/2/1
f 7/1/1 6/1/1 5/1/1
f 8/1/1 6/1/1 7/1/1
f 9/1/2 10/1/2 11/1/2
f 11/1/2 10/1/2 12/1/2
f 13/2/2 14/2/2 15/2/2
f 15/2/2 14/2/2 16/2/2
f 19/2/3 18/2/3 17/2/3
f 20/2/3 18/2/3 19/2/3
f 21/1/3 20/1/3 19/1/3
f 22/1/3 20/1/3 21/1/3
f 24/1/3 20/1/3 22/1/3
f 25/1/3 24/1/3 23/1/3
f 26/2/3 18/2/3 20/2/3
f 26/1/3 24/1/3 25/1/3
f 26/1/3 20/1/3 24/1/3
f 27/2/3 26/2/3 25/2/3
f 28/2/3 18/2/3 26/2/3
f 28/2/3 26/2/3 27/2/3
f 29/2/4 30/2/4 31/2/4
f 31/2/4 30/2/4 32/2/4
f 31/1/4 32/1/4 33/1/4
f 33/1/4 32/1/4 34/1/4
f 34/1/4 32/1/4 36/1/4
f 35/1/4 36/1/4 37/1/4
f 32/2/4 30/2/4 38/2/4
f 37/1/4 36/1/4 38/1/4
f 36/1/4 32/1/4 38/1/4
f 37/2/4 38/2/4 39/2/4
f 38/2/4 30/2/4 40/2/4
f 39/2/4 38/2/4 40/2/4
f 47/2/5 42/2/5 41/2/5
f 48/1/5 43/1/5 42/1/5
f 48/2/5 42/2/5 47/2/5
f 49/1/5 43/1/5 48/1/5
f 50/1/5 45/1/5 44/1/5
f 51/2/5 46/2/5 45/2/5
f 51/1/5 45/1/5 50/1/5
f 52/2/5 46/2/5 51/2/5
f 55/1/5 54/1/5 53/1/5
f 56/1/5 54/1/5 55/1/5
f 57/2/6 58/2/6 59/2/6
f 59/2/6 58/2/6 60/2/6
